<!-- Generated by IcoMoon.io -->
<svg version="1.1" xmlns="http://www.w3.org/2000/svg" width="1024" height="1024" viewBox="0 0 1024 1024">
<title></title>
<g id="icomoon-ignore">
</g>
<path fill="#000" d="M921.6 806.4c-21.333-12.8-38.4-34.133-51.2-59.733 59.733-68.267 89.6-149.333 89.6-234.667 0-106.667-46.933-204.8-132.267-277.333s-196.267-115.2-315.733-115.2-230.4 42.667-315.733 115.2c-85.333 72.533-132.267 170.667-132.267 277.333s46.933 204.8 132.267 277.333c85.333 72.533 196.267 115.2 315.733 115.2 81.067 0 162.133-17.067 230.4-55.467 34.133 17.067 76.8 29.867 123.733 29.867 12.8 0 29.867 0 42.667-4.267 17.067 0 25.6-12.8 29.867-25.6 0-17.067-4.267-34.133-17.067-42.667zM866.133 827.733c-42.667 0-76.8-8.533-110.933-29.867-8.533-4.267-17.067-4.267-25.6 0-64 34.133-140.8 55.467-217.6 55.467-217.6 0-396.8-153.6-396.8-341.333s179.2-341.333 396.8-341.333 396.8 153.6 396.8 341.333c0 76.8-29.867 153.6-85.333 213.333-4.267 8.533-8.533 17.067-4.267 25.6 8.533 29.867 25.6 55.467 46.933 76.8 0 0 0 0 0 0zM512 482.133c-17.067 0-29.867 12.8-29.867 29.867s12.8 29.867 29.867 29.867 29.867-12.8 29.867-29.867c0-17.067-12.8-29.867-29.867-29.867zM635.733 482.133c-17.067 0-29.867 12.8-29.867 29.867s12.8 29.867 29.867 29.867 29.867-12.8 29.867-29.867c0-17.067-12.8-29.867-29.867-29.867zM388.267 482.133c-17.067 0-29.867 12.8-29.867 29.867s12.8 29.867 29.867 29.867 29.867-12.8 29.867-29.867c0-17.067-12.8-29.867-29.867-29.867z"></path>
</svg>
