<!-- Generated by IcoMoon.io -->
<svg version="1.1" xmlns="http://www.w3.org/2000/svg" width="1024" height="1024" viewBox="0 0 1024 1024">
<title></title>
<g id="icomoon-ignore">
</g>
<path fill="#000" d="M942.933 230.4h-42.667v-42.667c0-8.533-8.533-17.067-17.067-17.067l-200.533-29.867c-55.467-8.533-115.2 4.267-162.133 29.867-51.2-25.6-106.667-34.133-162.133-29.867l-217.6 29.867c-8.533 0-17.067 8.533-17.067 17.067v42.667h-42.667c-8.533 0-17.067 8.533-17.067 17.067v618.667c0 8.533 8.533 17.067 17.067 17.067h861.867c8.533 0 12.8-8.533 12.8-17.067v-618.667c4.267-8.533-4.267-17.067-12.8-17.067zM533.333 200.533c42.667-21.333 93.867-29.867 140.8-21.333l187.733 29.867v558.933l-183.467-25.6c-51.2-4.267-98.133 0-145.067 21.333v-563.2zM162.133 204.8l192-29.867c46.933-4.267 98.133 4.267 140.8 21.333v563.2c-34.133-12.8-72.533-21.333-110.933-21.333-12.8 0-21.333 0-34.133 0l-187.733 29.867v-563.2zM921.6 849.067h-819.2v-580.267h25.6v524.8c0 4.267 4.267 8.533 4.267 12.8 4.267 4.267 8.533 4.267 12.8 4.267l209.067-29.867c51.2-4.267 106.667 4.267 153.6 29.867 4.267 4.267 12.8 4.267 17.067 0 46.933-25.6 98.133-34.133 153.6-29.867l200.533 29.867c0 0 0 0 0 0 4.267 0 8.533 0 12.8-4.267s4.267-8.533 4.267-12.8v-524.8h25.6v580.267zM597.333 366.933c34.133-8.533 46.933-12.8 81.067-8.533l110.933 17.067c0 0 0 0 4.267 0 8.533 0 17.067-8.533 17.067-17.067s-4.267-17.067-17.067-17.067l-110.933-21.333c-38.4-4.267-59.733 0-93.867 8.533-8.533 4.267-17.067 12.8-12.8 21.333 0 12.8 12.8 17.067 21.333 17.067zM226.133 371.2c0 0 4.267 0 0 0l128-17.067c34.133-4.267 46.933 0 76.8 8.533 8.533 4.267 21.333-4.267 21.333-12.8 4.267-8.533-4.267-21.333-12.8-21.333-34.133-8.533-51.2-12.8-89.6-8.533l-123.733 17.067c-12.8 0-17.067 8.533-17.067 21.333 0 8.533 8.533 12.8 17.067 12.8zM597.333 486.4c34.133-8.533 46.933-12.8 81.067-8.533l110.933 17.067c0 0 0 0 4.267 0 8.533 0 17.067-8.533 17.067-17.067s-4.267-21.333-17.067-21.333l-110.933-12.8c-38.4-4.267-59.733 0-93.867 8.533-8.533 4.267-17.067 12.8-12.8 21.333 0 8.533 12.8 17.067 21.333 12.8zM226.133 494.933c0 0 4.267 0 0 0l128-17.067c34.133-4.267 46.933 0 76.8 8.533 8.533 4.267 21.333-4.267 21.333-12.8 4.267-8.533-4.267-21.333-12.8-21.333-38.4-8.533-55.467-12.8-93.867-8.533l-123.733 17.067c-8.533 0-17.067 8.533-17.067 21.333 4.267 4.267 12.8 12.8 21.333 12.8zM678.4 614.4l110.933 17.067c0 0 0 0 4.267 0 8.533 0 17.067-8.533 17.067-17.067s-4.267-21.333-17.067-21.333l-110.933-17.067c-38.4-4.267-59.733 0-93.867 8.533-8.533 4.267-17.067 12.8-12.8 21.333s12.8 17.067 21.333 12.8c34.133-8.533 46.933-8.533 81.067-4.267zM435.2 618.667c8.533 4.267 21.333-4.267 21.333-12.8 4.267-8.533-4.267-21.333-12.8-21.333-38.4-8.533-55.467-12.8-93.867-8.533l-123.733 17.067c-8.533 0-17.067 8.533-17.067 21.333 0 8.533 8.533 17.067 17.067 17.067 0 0 0 0 4.267 0l123.733-17.067c34.133-4.267 46.933-4.267 81.067 4.267z"></path>
</svg>
