<!-- Generated by IcoMoon.io -->
<svg version="1.1" xmlns="http://www.w3.org/2000/svg" width="1024" height="1024" viewBox="0 0 1024 1024">
<title></title>
<g id="icomoon-ignore">
</g>
<path fill="#000" d="M913.067 691.2h-68.267v-81.067c0-34.133-25.6-59.733-59.733-59.733h-251.733v-89.6h140.8c34.133 0 64-29.867 64-64v-209.067c0-34.133-29.867-64-64-64h-320c-34.133 0-64 29.867-64 64v204.8c0 34.133 29.867 64 64 64h140.8v89.6h-251.733c-34.133 0-59.733 25.6-59.733 59.733v81.067h-72.533c-25.6 0-46.933 21.333-46.933 46.933v110.933c0 25.6 21.333 46.933 46.933 46.933h174.933c25.6 0 46.933-21.333 46.933-46.933v-110.933c0-25.6-21.333-46.933-46.933-46.933h-68.267v-81.067c0-12.8 12.8-25.6 25.6-25.6h251.733v106.667h-72.533c-25.6 0-46.933 21.333-46.933 46.933v110.933c0 25.6 21.333 46.933 46.933 46.933h174.933c25.6 0 46.933-21.333 46.933-46.933v-110.933c0-25.6-21.333-46.933-46.933-46.933h-68.267v-106.667h251.733c12.8 0 25.6 12.8 25.6 25.6v81.067h-68.267c-25.6 0-46.933 21.333-46.933 46.933v110.933c0 25.6 21.333 46.933 46.933 46.933h174.933c25.6 0 46.933-21.333 46.933-46.933v-110.933c0-21.333-21.333-42.667-46.933-42.667zM285.867 725.333c8.533 0 12.8 4.267 12.8 12.8v110.933c0 8.533-4.267 12.8-12.8 12.8h-174.933c-8.533 0-12.8-4.267-12.8-12.8v-110.933c0-8.533 4.267-12.8 12.8-12.8h174.933zM354.133 422.4c-17.067 0-29.867-12.8-29.867-29.867v-204.8c0-17.067 12.8-29.867 29.867-29.867h320c17.067 0 29.867 12.8 29.867 29.867v204.8c0 17.067-12.8 29.867-29.867 29.867h-320zM597.333 725.333c8.533 0 12.8 4.267 12.8 12.8v110.933c0 8.533-4.267 12.8-12.8 12.8h-174.933c-8.533 0-12.8-4.267-12.8-12.8v-110.933c0-8.533 4.267-12.8 12.8-12.8h174.933zM925.867 849.067c0 8.533-4.267 12.8-12.8 12.8h-174.933c-8.533 0-12.8-4.267-12.8-12.8v-110.933c0-8.533 4.267-12.8 12.8-12.8h174.933c8.533 0 12.8 4.267 12.8 12.8v110.933zM601.6 234.667h-183.467c-8.533 0-17.067 8.533-17.067 17.067s8.533 17.067 17.067 17.067h183.467c8.533 0 17.067-8.533 17.067-17.067 4.267-8.533-4.267-17.067-17.067-17.067zM601.6 315.733h-183.467c-8.533 0-17.067 8.533-17.067 17.067s8.533 17.067 17.067 17.067h183.467c8.533 0 17.067-8.533 17.067-17.067 4.267-12.8-4.267-17.067-17.067-17.067z"></path>
</svg>
