<!-- Generated by IcoMoon.io -->
<svg version="1.1" xmlns="http://www.w3.org/2000/svg" width="1024" height="1024" viewBox="0 0 1024 1024">
<title></title>
<g id="icomoon-ignore">
</g>
<path fill="#000" d="M196.267 832c81.067 81.067 192 128 315.733 128 247.467 0 448-200.533 448-448s-200.533-448-448-448c-123.733 0-234.667 51.2-315.733 128 0 0 0 0 0 0s0 0 0 0c-81.067 81.067-128 192-128 315.733-4.267 128 46.933 238.933 128 324.267 0-4.267 0-4.267 0 0 0-4.267 0-4.267 0 0zM512 930.133c-110.933 0-209.067-42.667-285.867-110.933l115.2-115.2c46.933 38.4 106.667 64 170.667 64 136.533 0 243.2-106.667 251.733-238.933h166.4c-8.533 221.867-192 401.067-418.133 401.067zM290.133 512c0-123.733 102.4-221.867 221.867-221.867s221.867 102.4 221.867 221.867-102.4 221.867-221.867 221.867-221.867-98.133-221.867-221.867zM930.133 494.933h-166.4c-8.533-132.267-119.467-238.933-251.733-238.933-64 0-123.733 25.6-166.4 64l-119.467-115.2c76.8-68.267 174.933-110.933 285.867-110.933 226.133 0 409.6 179.2 418.133 401.067zM106.667 494.933c0-8.533-4.267-12.8-12.8-12.8 0-21.333 4.267-42.667 8.533-64 4.267-4.267 4.267-4.267 4.267-8.533 0 0 0-4.267 0-4.267 17.067-68.267 51.2-128 98.133-174.933l115.2 115.2c0 0-4.267 4.267-4.267 4.267s0 0 0 0c-8.533 0-12.8 8.533-12.8 17.067 0 0 0 4.267 0 4.267-4.267 4.267-12.8 17.067-17.067 29.867-4.267-4.267-8.533-8.533-12.8-8.533-8.533 0-12.8 8.533-12.8 17.067s8.533 12.8 12.8 12.8c0 0 0 0 0 0-8.533 29.867-17.067 59.733-17.067 89.6 0 21.333 4.267 42.667 8.533 59.733-4.267 4.267-8.533 8.533-8.533 12.8 0 8.533 8.533 17.067 12.8 17.067 0 0 0 0 0 0 12.8 29.867 25.6 55.467 46.933 81.067l-115.2 115.2c-4.267-4.267-12.8-12.8-17.067-17.067 4.267-4.267 8.533-8.533 8.533-12.8 0-8.533-8.533-17.067-12.8-17.067s-8.533 0-12.8 4.267c-8.533-8.533-12.8-21.333-21.333-29.867 0 0 0-4.267 0-4.267 0-8.533-4.267-12.8-12.8-12.8-17.067-34.133-29.867-68.267-38.4-106.667 4.267-4.267 4.267-8.533 4.267-12.8 0-8.533-4.267-12.8-8.533-12.8 4.267-21.333 4.267-42.667 4.267-64 8.533 0 12.8-8.533 12.8-17.067z"></path>
<path fill="#000" d="M238.933 541.867c0 7.069-5.731 12.8-12.8 12.8s-12.8-5.731-12.8-12.8c0-7.069 5.731-12.8 12.8-12.8s12.8 5.731 12.8 12.8z"></path>
<path fill="#000" d="M196.267 588.8c0 7.069-5.731 12.8-12.8 12.8s-12.8-5.731-12.8-12.8c0-7.069 5.731-12.8 12.8-12.8s12.8 5.731 12.8 12.8z"></path>
<path fill="#000" d="M238.933 631.467c0 7.069-5.731 12.8-12.8 12.8s-12.8-5.731-12.8-12.8c0-7.069 5.731-12.8 12.8-12.8s12.8 5.731 12.8 12.8z"></path>
<path fill="#000" d="M238.933 452.267c0 7.069-5.731 12.8-12.8 12.8s-12.8-5.731-12.8-12.8c0-7.069 5.731-12.8 12.8-12.8s12.8 5.731 12.8 12.8z"></path>
<path fill="#000" d="M196.267 494.933c0 7.069-5.731 12.8-12.8 12.8s-12.8-5.731-12.8-12.8c0-7.069 5.731-12.8 12.8-12.8s12.8 5.731 12.8 12.8z"></path>
<path fill="#000" d="M238.933 273.067c0 7.069-5.731 12.8-12.8 12.8s-12.8-5.731-12.8-12.8c0-7.069 5.731-12.8 12.8-12.8s12.8 5.731 12.8 12.8z"></path>
<path fill="#000" d="M238.933 362.667c0 7.069-5.731 12.8-12.8 12.8s-12.8-5.731-12.8-12.8c0-7.069 5.731-12.8 12.8-12.8s12.8 5.731 12.8 12.8z"></path>
<path fill="#000" d="M285.867 315.733c0 7.069-5.731 12.8-12.8 12.8s-12.8-5.731-12.8-12.8c0-7.069 5.731-12.8 12.8-12.8s12.8 5.731 12.8 12.8z"></path>
<path fill="#000" d="M196.267 315.733c0 7.069-5.731 12.8-12.8 12.8s-12.8-5.731-12.8-12.8c0-7.069 5.731-12.8 12.8-12.8s12.8 5.731 12.8 12.8z"></path>
<path fill="#000" d="M196.267 409.6c0 7.069-5.731 12.8-12.8 12.8s-12.8-5.731-12.8-12.8c0-7.069 5.731-12.8 12.8-12.8s12.8 5.731 12.8 12.8z"></path>
<path fill="#000" d="M285.867 678.4c0 7.069-5.731 12.8-12.8 12.8s-12.8-5.731-12.8-12.8c0-7.069 5.731-12.8 12.8-12.8s12.8 5.731 12.8 12.8z"></path>
<path fill="#000" d="M196.267 678.4c0 7.069-5.731 12.8-12.8 12.8s-12.8-5.731-12.8-12.8c0-7.069 5.731-12.8 12.8-12.8s12.8 5.731 12.8 12.8z"></path>
<path fill="#000" d="M238.933 721.067c0 7.069-5.731 12.8-12.8 12.8s-12.8-5.731-12.8-12.8c0-7.069 5.731-12.8 12.8-12.8s12.8 5.731 12.8 12.8z"></path>
<path fill="#000" d="M149.333 541.867c0 7.069-5.731 12.8-12.8 12.8s-12.8-5.731-12.8-12.8c0-7.069 5.731-12.8 12.8-12.8s12.8 5.731 12.8 12.8z"></path>
<path fill="#000" d="M149.333 631.467c0 7.069-5.731 12.8-12.8 12.8s-12.8-5.731-12.8-12.8c0-7.069 5.731-12.8 12.8-12.8s12.8 5.731 12.8 12.8z"></path>
<path fill="#000" d="M149.333 452.267c0 7.069-5.731 12.8-12.8 12.8s-12.8-5.731-12.8-12.8c0-7.069 5.731-12.8 12.8-12.8s12.8 5.731 12.8 12.8z"></path>
<path fill="#000" d="M149.333 362.667c0 7.069-5.731 12.8-12.8 12.8s-12.8-5.731-12.8-12.8c0-7.069 5.731-12.8 12.8-12.8s12.8 5.731 12.8 12.8z"></path>
</svg>
