<!-- Generated by IcoMoon.io -->
<svg version="1.1" xmlns="http://www.w3.org/2000/svg" width="1024" height="1024" viewBox="0 0 1024 1024">
<title></title>
<g id="icomoon-ignore">
</g>
<path fill="#000" d="M682.667 533.333h-337.067c-12.8 0-21.333 8.533-21.333 21.333s8.533 21.333 21.333 21.333h337.067c12.8 0 21.333-8.533 21.333-21.333-4.267-8.533-12.8-21.333-21.333-21.333zM341.333 435.2h337.067c12.8 0 21.333-8.533 21.333-21.333s-8.533-21.333-21.333-21.333h-337.067c-12.8 0-21.333 8.533-21.333 21.333 4.267 8.533 12.8 21.333 21.333 21.333zM682.667 682.667h-337.067c-12.8 0-21.333 8.533-21.333 21.333s8.533 21.333 21.333 21.333h337.067c12.8 0 21.333-8.533 21.333-21.333-4.267-12.8-12.8-21.333-21.333-21.333zM827.733 256l-166.4-183.467c-4.267-4.267-8.533-8.533-12.8-8.533h-366.933c-51.2 0-89.6 46.933-89.6 102.4v686.933c0 55.467 38.4 102.4 89.6 102.4h460.8c51.2 0 89.6-46.933 89.6-102.4v-580.267c0-8.533-4.267-12.8-4.267-17.067zM665.6 140.8v0l93.867 106.667h-46.933c-25.6 0-46.933-25.6-46.933-55.467v-51.2zM793.6 857.6c0 29.867-21.333 55.467-46.933 55.467h-465.067c-25.6 0-46.933-25.6-46.933-55.467v-691.2c0-29.867 21.333-55.467 46.933-55.467h345.6v81.067c0 55.467 38.4 102.4 89.6 102.4h76.8v563.2z"></path>
</svg>
